<svg width="56" height="56" viewBox="0 0 56 56" fill="none" xmlns="http://www.w3.org/2000/svg">
<rect width="56" height="56" rx="28" fill="#1B83ED"/>
<path d="M34.2667 36.6625H21.7333C20.7467 36.6625 19.7467 36 19.4133 35.1375L13.8933 20.65C13.2133 18.825 13.7067 17.9875 14.24 17.6125C14.7733 17.2375 15.7733 17.0125 17.4533 18.1375L22.6533 21.625C22.8133 21.7125 22.96 21.75 23.0667 21.725C23.1867 21.6875 23.28 21.5875 23.3467 21.4125L25.6933 15.55C26.4 13.8 27.44 13.5375 28 13.5375C28.56 13.5375 29.6 13.8 30.3067 15.55L32.6533 21.4125C32.72 21.575 32.8133 21.6875 32.9333 21.725C33.0533 21.7625 33.2 21.725 33.3467 21.6125L38.2267 18.35C40.0133 17.15 41.0533 17.3875 41.6267 17.775C42.1867 18.175 42.7067 19.0625 41.9733 21L36.5867 35.1375C36.2533 36 35.2533 36.6625 34.2667 36.6625ZM15.5733 19.2625C15.6 19.4375 15.6533 19.6875 15.7867 20.0125L21.3067 34.5C21.36 34.625 21.6 34.7875 21.7333 34.7875H34.2667C34.4133 34.7875 34.6533 34.625 34.6933 34.5L40.08 20.375C40.2667 19.9 40.32 19.575 40.3333 19.3875C40.1333 19.45 39.8267 19.5875 39.3867 19.8875L34.5067 23.15C33.84 23.5875 33.0533 23.725 32.3467 23.525C31.64 23.325 31.0667 22.8 30.7733 22.0875L28.4267 16.225C28.2533 15.7875 28.0933 15.575 28 15.475C27.9067 15.575 27.7467 15.7875 27.5733 16.2125L25.2267 22.075C24.9467 22.7875 24.3733 23.3125 23.6533 23.5125C22.9467 23.7125 22.1467 23.575 21.4933 23.1375L16.2933 19.65C15.9867 19.45 15.7467 19.325 15.5733 19.2625Z" fill="white"/>
<path d="M35.3333 40.4375H20.6667C20.12 40.4375 19.6667 40.0125 19.6667 39.5C19.6667 38.9875 20.12 38.5625 20.6667 38.5625H35.3333C35.88 38.5625 36.3333 38.9875 36.3333 39.5C36.3333 40.0125 35.88 40.4375 35.3333 40.4375Z" fill="white"/>
<path d="M31.3333 30.4375H24.6667C24.12 30.4375 23.6667 30.0125 23.6667 29.5C23.6667 28.9875 24.12 28.5625 24.6667 28.5625H31.3333C31.88 28.5625 32.3333 28.9875 32.3333 29.5C32.3333 30.0125 31.88 30.4375 31.3333 30.4375Z" fill="white"/>
</svg>
