<svg width="32" height="32" viewBox="0 0 32 32" fill="none" xmlns="http://www.w3.org/2000/svg">
<rect width="32" height="32" rx="2" fill="white"/>
<path d="M29 16C29 23.1797 23.1797 29 16 29C8.8203 29 3 23.1797 3 16C3 8.8203 8.8203 3 16 3C23.1797 3 29 8.8203 29 16ZM8.97776 16C8.97776 19.8783 12.1217 23.0222 16 23.0222C19.8783 23.0222 23.0222 19.8783 23.0222 16C23.0222 12.1217 19.8783 8.97776 16 8.97776C12.1217 8.97776 8.97776 12.1217 8.97776 16Z" fill="#469CF3"/>
<path d="M20.7443 17.6957H15.6475C15.5569 17.6957 15.5031 17.7969 15.5538 17.8719L23.0316 28.9502C23.0526 28.9813 23.0877 29 23.1253 29H28.2221C28.3127 29 28.3665 28.8988 28.3158 28.8237L20.838 17.7455C20.8169 17.7143 20.7818 17.6957 20.7443 17.6957Z" fill="#469CF3"/>
</svg>
