<svg width="96" height="96" viewBox="0 0 96 96" fill="none" xmlns="http://www.w3.org/2000/svg">
<rect width="96" height="96" rx="6" fill="white"/>
<path d="M86 48C86 68.9868 68.9868 86 48 86C27.0132 86 10 68.9868 10 48C10 27.0132 27.0132 10 48 10C68.9868 10 86 27.0132 86 48ZM27.4735 48C27.4735 59.3365 36.6635 68.5266 48 68.5266C59.3365 68.5266 68.5266 59.3365 68.5266 48C68.5266 36.6635 59.3365 27.4735 48 27.4735C36.6635 27.4735 27.4735 36.6635 27.4735 48Z" fill="#469CF3"/>
<path d="M61.8679 52.9565H46.9695C46.7048 52.9565 46.5475 53.2524 46.6957 53.4718L68.5539 85.8544C68.6154 85.9454 68.718 86 68.8278 86H83.7261C83.9909 86 84.1481 85.7042 84 85.4847L62.1417 53.1021C62.0803 53.0111 61.9777 52.9565 61.8679 52.9565Z" fill="#469CF3"/>
</svg>
