<svg width="16" height="16" viewBox="0 0 16 16" fill="none" xmlns="http://www.w3.org/2000/svg">
<rect width="16" height="16" rx="1" fill="white"/>
<path d="M14 8C14 11.3137 11.3137 14 8 14C4.68629 14 2 11.3137 2 8C2 4.68629 4.68629 2 8 2C11.3137 2 14 4.68629 14 8ZM4.75897 8C4.75897 9.78997 6.21003 11.241 8 11.241C9.78997 11.241 11.241 9.78997 11.241 8C11.241 6.21003 9.78997 4.75897 8 4.75897C6.21003 4.75897 4.75897 6.21003 4.75897 8Z" fill="#469CF3"/>
<path d="M10.1897 8.78261H7.8373C7.79549 8.78261 7.77066 8.82932 7.79405 8.86397L11.2454 13.977C11.2551 13.9914 11.2713 14 11.2886 14H13.641C13.6828 14 13.7076 13.9533 13.6842 13.9186L10.2329 8.80559C10.2232 8.79122 10.207 8.78261 10.1897 8.78261Z" fill="#469CF3"/>
</svg>
