<svg width="470" height="604" viewBox="0 0 470 604" fill="none" xmlns="http://www.w3.org/2000/svg">
<circle cx="188" cy="2" r="2" fill="#DDDDDD"/>
<circle cx="28" cy="2" r="2" fill="#DDDDDD"/>
<circle cx="348" cy="2" r="2" fill="#DDDDDD"/>
<circle cx="268" cy="2" r="2" fill="#DDDDDD"/>
<circle cx="108" cy="2" r="2" fill="#DDDDDD"/>
<circle cx="428" cy="2" r="2" fill="#DDDDDD"/>
<circle cx="228" cy="2" r="2" fill="#DDDDDD"/>
<circle cx="68" cy="2" r="2" fill="#DDDDDD"/>
<circle cx="388" cy="2" r="2" fill="#DDDDDD"/>
<circle cx="308" cy="2" r="2" fill="#DDDDDD"/>
<circle cx="148" cy="2" r="2" fill="#DDDDDD"/>
<circle cx="468" cy="2" r="2" fill="#DDDDDD"/>
<circle cx="188" cy="322" r="2" fill="#DDDDDD"/>
<circle cx="28" cy="322" r="2" fill="#DDDDDD"/>
<circle cx="348" cy="322" r="2" fill="#DDDDDD"/>
<circle cx="268" cy="322" r="2" fill="#DDDDDD"/>
<circle cx="108" cy="322" r="2" fill="#DDDDDD"/>
<circle cx="428" cy="322" r="2" fill="#DDDDDD"/>
<circle cx="228" cy="322" r="2" fill="#DDDDDD"/>
<circle cx="68" cy="322" r="2" fill="#DDDDDD"/>
<circle cx="388" cy="322" r="2" fill="#DDDDDD"/>
<circle cx="308" cy="322" r="2" fill="#DDDDDD"/>
<circle cx="148" cy="322" r="2" fill="#DDDDDD"/>
<circle cx="468" cy="322" r="2" fill="#DDDDDD"/>
<circle cx="188" cy="162" r="2" fill="#DDDDDD"/>
<circle cx="28" cy="162" r="2" fill="#DDDDDD"/>
<circle cx="348" cy="162" r="2" fill="#DDDDDD"/>
<circle cx="268" cy="162" r="2" fill="#DDDDDD"/>
<circle cx="108" cy="162" r="2" fill="#DDDDDD"/>
<circle cx="428" cy="162" r="2" fill="#DDDDDD"/>
<circle cx="228" cy="162" r="2" fill="#DDDDDD"/>
<circle cx="68" cy="162" r="2" fill="#DDDDDD"/>
<circle cx="388" cy="162" r="2" fill="#DDDDDD"/>
<circle cx="308" cy="162" r="2" fill="#DDDDDD"/>
<circle cx="148" cy="162" r="2" fill="#DDDDDD"/>
<circle cx="468" cy="162" r="2" fill="#DDDDDD"/>
<circle cx="188" cy="482" r="2" fill="#DDDDDD"/>
<circle cx="28" cy="482" r="2" fill="#DDDDDD"/>
<circle cx="348" cy="482" r="2" fill="#DDDDDD"/>
<circle cx="268" cy="482" r="2" fill="#DDDDDD"/>
<circle cx="108" cy="482" r="2" fill="#DDDDDD"/>
<circle cx="428" cy="482" r="2" fill="#DDDDDD"/>
<circle cx="228" cy="482" r="2" fill="#DDDDDD"/>
<circle cx="68" cy="482" r="2" fill="#DDDDDD"/>
<circle cx="388" cy="482" r="2" fill="#DDDDDD"/>
<circle cx="308" cy="482" r="2" fill="#DDDDDD"/>
<circle cx="148" cy="482" r="2" fill="#DDDDDD"/>
<circle cx="468" cy="482" r="2" fill="#DDDDDD"/>
<circle cx="188" cy="82" r="2" fill="#DDDDDD"/>
<circle cx="28" cy="82" r="2" fill="#DDDDDD"/>
<circle cx="348" cy="82" r="2" fill="#DDDDDD"/>
<circle cx="268" cy="82" r="2" fill="#DDDDDD"/>
<circle cx="108" cy="82" r="2" fill="#DDDDDD"/>
<circle cx="428" cy="82" r="2" fill="#DDDDDD"/>
<circle cx="228" cy="82" r="2" fill="#DDDDDD"/>
<circle cx="68" cy="82" r="2" fill="#DDDDDD"/>
<circle cx="388" cy="82" r="2" fill="#DDDDDD"/>
<circle cx="308" cy="82" r="2" fill="#DDDDDD"/>
<circle cx="148" cy="82" r="2" fill="#DDDDDD"/>
<circle cx="468" cy="82" r="2" fill="#DDDDDD"/>
<circle cx="188" cy="402" r="2" fill="#DDDDDD"/>
<circle cx="28" cy="402" r="2" fill="#DDDDDD"/>
<circle cx="348" cy="402" r="2" fill="#DDDDDD"/>
<circle cx="268" cy="402" r="2" fill="#DDDDDD"/>
<circle cx="108" cy="402" r="2" fill="#DDDDDD"/>
<circle cx="428" cy="402" r="2" fill="#DDDDDD"/>
<circle cx="228" cy="402" r="2" fill="#DDDDDD"/>
<circle cx="68" cy="402" r="2" fill="#DDDDDD"/>
<circle cx="388" cy="402" r="2" fill="#DDDDDD"/>
<circle cx="308" cy="402" r="2" fill="#DDDDDD"/>
<circle cx="148" cy="402" r="2" fill="#DDDDDD"/>
<circle cx="468" cy="402" r="2" fill="#DDDDDD"/>
<circle cx="188" cy="242" r="2" fill="#DDDDDD"/>
<circle cx="28" cy="242" r="2" fill="#DDDDDD"/>
<circle cx="348" cy="242" r="2" fill="#DDDDDD"/>
<circle cx="268" cy="242" r="2" fill="#DDDDDD"/>
<circle cx="108" cy="242" r="2" fill="#DDDDDD"/>
<circle cx="428" cy="242" r="2" fill="#DDDDDD"/>
<circle cx="228" cy="242" r="2" fill="#DDDDDD"/>
<circle cx="68" cy="242" r="2" fill="#DDDDDD"/>
<circle cx="388" cy="242" r="2" fill="#DDDDDD"/>
<circle cx="308" cy="242" r="2" fill="#DDDDDD"/>
<circle cx="148" cy="242" r="2" fill="#DDDDDD"/>
<circle cx="468" cy="242" r="2" fill="#DDDDDD"/>
<circle cx="188" cy="562" r="2" fill="#DDDDDD"/>
<circle cx="28" cy="562" r="2" fill="#DDDDDD"/>
<circle cx="348" cy="562" r="2" fill="#DDDDDD"/>
<circle cx="268" cy="562" r="2" fill="#DDDDDD"/>
<circle cx="108" cy="562" r="2" fill="#DDDDDD"/>
<circle cx="428" cy="562" r="2" fill="#DDDDDD"/>
<circle cx="228" cy="562" r="2" fill="#DDDDDD"/>
<circle cx="68" cy="562" r="2" fill="#DDDDDD"/>
<circle cx="388" cy="562" r="2" fill="#DDDDDD"/>
<circle cx="308" cy="562" r="2" fill="#DDDDDD"/>
<circle cx="148" cy="562" r="2" fill="#DDDDDD"/>
<circle cx="468" cy="562" r="2" fill="#DDDDDD"/>
<circle cx="188" cy="42" r="2" fill="#DDDDDD"/>
<circle cx="28" cy="42" r="2" fill="#DDDDDD"/>
<circle cx="348" cy="42" r="2" fill="#DDDDDD"/>
<circle cx="268" cy="42" r="2" fill="#DDDDDD"/>
<circle cx="108" cy="42" r="2" fill="#DDDDDD"/>
<circle cx="428" cy="42" r="2" fill="#DDDDDD"/>
<circle cx="228" cy="42" r="2" fill="#DDDDDD"/>
<circle cx="68" cy="42" r="2" fill="#DDDDDD"/>
<circle cx="388" cy="42" r="2" fill="#DDDDDD"/>
<circle cx="308" cy="42" r="2" fill="#DDDDDD"/>
<circle cx="148" cy="42" r="2" fill="#DDDDDD"/>
<circle cx="468" cy="42" r="2" fill="#DDDDDD"/>
<circle cx="188" cy="362" r="2" fill="#DDDDDD"/>
<circle cx="28" cy="362" r="2" fill="#DDDDDD"/>
<circle cx="348" cy="362" r="2" fill="#DDDDDD"/>
<circle cx="268" cy="362" r="2" fill="#DDDDDD"/>
<circle cx="108" cy="362" r="2" fill="#DDDDDD"/>
<circle cx="428" cy="362" r="2" fill="#DDDDDD"/>
<circle cx="228" cy="362" r="2" fill="#DDDDDD"/>
<circle cx="68" cy="362" r="2" fill="#DDDDDD"/>
<circle cx="388" cy="362" r="2" fill="#DDDDDD"/>
<circle cx="308" cy="362" r="2" fill="#DDDDDD"/>
<circle cx="148" cy="362" r="2" fill="#DDDDDD"/>
<circle cx="468" cy="362" r="2" fill="#DDDDDD"/>
<circle cx="188" cy="202" r="2" fill="#DDDDDD"/>
<circle cx="28" cy="202" r="2" fill="#DDDDDD"/>
<circle cx="348" cy="202" r="2" fill="#DDDDDD"/>
<circle cx="268" cy="202" r="2" fill="#DDDDDD"/>
<circle cx="108" cy="202" r="2" fill="#DDDDDD"/>
<circle cx="428" cy="202" r="2" fill="#DDDDDD"/>
<circle cx="228" cy="202" r="2" fill="#DDDDDD"/>
<circle cx="68" cy="202" r="2" fill="#DDDDDD"/>
<circle cx="388" cy="202" r="2" fill="#DDDDDD"/>
<circle cx="308" cy="202" r="2" fill="#DDDDDD"/>
<circle cx="148" cy="202" r="2" fill="#DDDDDD"/>
<circle cx="468" cy="202" r="2" fill="#DDDDDD"/>
<circle cx="188" cy="522" r="2" fill="#DDDDDD"/>
<circle cx="28" cy="522" r="2" fill="#DDDDDD"/>
<circle cx="348" cy="522" r="2" fill="#DDDDDD"/>
<circle cx="268" cy="522" r="2" fill="#DDDDDD"/>
<circle cx="108" cy="522" r="2" fill="#DDDDDD"/>
<circle cx="428" cy="522" r="2" fill="#DDDDDD"/>
<circle cx="228" cy="522" r="2" fill="#DDDDDD"/>
<circle cx="68" cy="522" r="2" fill="#DDDDDD"/>
<circle cx="388" cy="522" r="2" fill="#DDDDDD"/>
<circle cx="308" cy="522" r="2" fill="#DDDDDD"/>
<circle cx="148" cy="522" r="2" fill="#DDDDDD"/>
<circle cx="468" cy="522" r="2" fill="#DDDDDD"/>
<circle cx="188" cy="122" r="2" fill="#DDDDDD"/>
<circle cx="28" cy="122" r="2" fill="#DDDDDD"/>
<circle cx="348" cy="122" r="2" fill="#DDDDDD"/>
<circle cx="268" cy="122" r="2" fill="#DDDDDD"/>
<circle cx="108" cy="122" r="2" fill="#DDDDDD"/>
<circle cx="428" cy="122" r="2" fill="#DDDDDD"/>
<circle cx="228" cy="122" r="2" fill="#DDDDDD"/>
<circle cx="68" cy="122" r="2" fill="#DDDDDD"/>
<circle cx="388" cy="122" r="2" fill="#DDDDDD"/>
<circle cx="308" cy="122" r="2" fill="#DDDDDD"/>
<circle cx="148" cy="122" r="2" fill="#DDDDDD"/>
<circle cx="468" cy="122" r="2" fill="#DDDDDD"/>
<circle cx="188" cy="442" r="2" fill="#DDDDDD"/>
<circle cx="28" cy="442" r="2" fill="#DDDDDD"/>
<circle cx="348" cy="442" r="2" fill="#DDDDDD"/>
<circle cx="268" cy="442" r="2" fill="#DDDDDD"/>
<circle cx="108" cy="442" r="2" fill="#DDDDDD"/>
<circle cx="428" cy="442" r="2" fill="#DDDDDD"/>
<circle cx="228" cy="442" r="2" fill="#DDDDDD"/>
<circle cx="68" cy="442" r="2" fill="#DDDDDD"/>
<circle cx="388" cy="442" r="2" fill="#DDDDDD"/>
<circle cx="308" cy="442" r="2" fill="#DDDDDD"/>
<circle cx="148" cy="442" r="2" fill="#DDDDDD"/>
<circle cx="468" cy="442" r="2" fill="#DDDDDD"/>
<circle cx="188" cy="282" r="2" fill="#DDDDDD"/>
<circle cx="28" cy="282" r="2" fill="#DDDDDD"/>
<circle cx="348" cy="282" r="2" fill="#DDDDDD"/>
<circle cx="268" cy="282" r="2" fill="#DDDDDD"/>
<circle cx="108" cy="282" r="2" fill="#DDDDDD"/>
<circle cx="428" cy="282" r="2" fill="#DDDDDD"/>
<circle cx="228" cy="282" r="2" fill="#DDDDDD"/>
<circle cx="68" cy="282" r="2" fill="#DDDDDD"/>
<circle cx="388" cy="282" r="2" fill="#DDDDDD"/>
<circle cx="308" cy="282" r="2" fill="#DDDDDD"/>
<circle cx="148" cy="282" r="2" fill="#DDDDDD"/>
<circle cx="468" cy="282" r="2" fill="#DDDDDD"/>
<circle cx="188" cy="602" r="2" fill="#DDDDDD"/>
<circle cx="28" cy="602" r="2" fill="#DDDDDD"/>
<circle cx="348" cy="602" r="2" fill="#DDDDDD"/>
<circle cx="268" cy="602" r="2" fill="#DDDDDD"/>
<circle cx="108" cy="602" r="2" fill="#DDDDDD"/>
<circle cx="428" cy="602" r="2" fill="#DDDDDD"/>
<circle cx="228" cy="602" r="2" fill="#DDDDDD"/>
<circle cx="68" cy="602" r="2" fill="#DDDDDD"/>
<circle cx="388" cy="602" r="2" fill="#DDDDDD"/>
<circle cx="308" cy="602" r="2" fill="#DDDDDD"/>
<circle cx="148" cy="602" r="2" fill="#DDDDDD"/>
<circle cx="468" cy="602" r="2" fill="#DDDDDD"/>
</svg>
